<svg xmlns="http://www.w3.org/2000/svg" xmlns:xlink="http://www.w3.org/1999/xlink" xmlns:lucid="lucid" width="1242.67" height="681"><g transform="translate(-399.4999999999999 -446.83333333333337)" lucid:page-tab-id="Jy1QJpHCM_dY"><path d="M0 0h2000v1500H0z" fill="#fff"/><path d="M961.67 853.33a6 6 0 0 1 6-6h148a6 6 0 0 1 6 6v188a6 6 0 0 1-6 6h-148a6 6 0 0 1-6-6zm16-6v200m128-200v200" stroke="#3a414a" fill="#edf5ff"/><use xlink:href="#a" transform="matrix(1,0,0,1,981.6666666666665,847.3333333333334) translate(18.086419753086417 65.77777777777777)"/><path d="M580 653.33a6 6 0 0 1 6-6h148a6 6 0 0 1 6 6v108a6 6 0 0 1-6 6H586a6 6 0 0 1-6-6zm16-6v120m128-120v120" stroke="#3a414a" fill="#fff7a1"/><use xlink:href="#b" transform="matrix(1,0,0,1,600,647.3333333333334) translate(24.845679012345684 64.44444444444444)"/><path d="M1330.45 653.13a7.8 7.8 0 0 1 7.55-5.8h116a4.6 4.6 0 0 1 4.45 5.8l-28.9 108.4a7.8 7.8 0 0 1-7.55 5.8h-116a4.6 4.6 0 0 1-4.45-5.8z" stroke="#3a414a" fill="#fff"/><use xlink:href="#c" transform="matrix(1,0,0,1,1305,652.3333333333334) translate(45.51117283950617 45.27777777777778)"/><use xlink:href="#d" transform="matrix(1,0,0,1,1305,652.3333333333334) translate(98.53586419753086 45.27777777777778)"/><use xlink:href="#e" transform="matrix(1,0,0,1,1305,652.3333333333334) translate(29.591419753086413 71.94444444444446)"/><path d="M820 653.33a6 6 0 0 1 6-6h148a6 6 0 0 1 6 6v108a6 6 0 0 1-6 6H826a6 6 0 0 1-6-6z" stroke="#3a414a" fill="#fff"/><use xlink:href="#f" transform="matrix(1,0,0,1,832,659.3333333333334) translate(21.76543209876543 53.77777777777778)"/><use xlink:href="#g" transform="matrix(1,0,0,1,832,659.3333333333334) translate(67.38271604938271 53.77777777777778)"/><path d="M741 707.33h62.12" stroke="#3a414a" fill="none"/><path d="M741 707.83h-.5v-1h.5z" stroke="#3a414a" stroke-width=".05" fill="#3a414a"/><path d="M817.88 707.33l-14.26 4.64v-9.27z" stroke="#3a414a" fill="#3a414a"/><path d="M1060 493.33a6 6 0 0 1 6-6h148a6 6 0 0 1 6 6v108a6 6 0 0 1-6 6h-148a6 6 0 0 1-6-6zm16-6v120m128-120v120" stroke="#3a414a" fill="#fff3d9"/><use xlink:href="#h" transform="matrix(1,0,0,1,1080,487.33333333333337) translate(16.882716049382715 64.44444444444444)"/><path d="M1060 653.33a6 6 0 0 1 6-6h148a6 6 0 0 1 6 6v108a6 6 0 0 1-6 6h-148a6 6 0 0 1-6-6z" stroke="#3a414a" fill="#fff"/><use xlink:href="#i" transform="matrix(1,0,0,1,1072,659.3333333333334) translate(26.672839506172842 38.77777777777778)"/><use xlink:href="#j" transform="matrix(1,0,0,1,1072,659.3333333333334) translate(39.851851851851855 65.44444444444446)"/><path d="M1140 608.33v22.12" stroke="#3a414a" fill="none"/><path d="M1140.5 608.35h-1v-.52h1z" stroke="#3a414a" stroke-width=".05" fill="#3a414a"/><path d="M1140 645.2l-4.63-14.25h9.27z" stroke="#3a414a" fill="#3a414a"/><path d="M981 707.33h62.12" stroke="#3a414a" fill="none"/><path d="M981 707.83h-.5v-1h.5z" stroke="#3a414a" stroke-width=".05" fill="#3a414a"/><path d="M1057.88 707.33l-14.26 4.64v-9.27z" stroke="#3a414a" fill="#3a414a"/><path d="M1221 707.33h78.1" stroke="#3a414a" fill="none"/><path d="M1221 707.83h-.5v-1h.5z" stroke="#3a414a" stroke-width=".05" fill="#3a414a"/><path d="M1313.87 707.33l-14.27 4.64v-9.27z" stroke="#3a414a" fill="#3a414a"/><path d="M752.12 893.13a7.8 7.8 0 0 1 7.55-5.8h116a4.6 4.6 0 0 1 4.45 5.8l-28.9 108.4a7.8 7.8 0 0 1-7.55 5.8h-116a4.6 4.6 0 0 1-4.46-5.8z" stroke="#3a414a" fill="#fff"/><use xlink:href="#c" transform="matrix(1,0,0,1,726.6666666666665,892.3333333333334) translate(45.51117283950617 45.27777777777778)"/><use xlink:href="#d" transform="matrix(1,0,0,1,726.6666666666665,892.3333333333334) translate(98.53586419753086 45.27777777777778)"/><use xlink:href="#e" transform="matrix(1,0,0,1,726.6666666666665,892.3333333333334) translate(29.591419753086413 71.94444444444446)"/><path d="M867.18 945.33h10.05m10.04 0h20.1m10.04 0h20.1m10.04 0h20.1m10.03 0h20.1m10.03 0h20.1m10.04 0h20.1m10.03 0h20.1m10.03 0h20.1m10.04 0h20.1m10.03 0h20.1m10.03 0h10.05M867.18 949.33h10.05m10.04 0h20.1m10.04 0h20.1m10.04 0h20.1m10.03 0h20.1m10.03 0h20.1m10.04 0h20.1m10.03 0h20.1m10.03 0h20.1m10.04 0h20.1m10.03 0h20.1m10.03 0h10.05" stroke="#3a414a" stroke-width="2" fill="none"/><path d="M867.2 946.33h-.75l.53-2h.23zM867.2 950.33h-1.82l.54-2h1.3z" stroke="#3a414a" stroke-width=".05" fill="#3a414a"/><path d="M1213.9 947.33l-14.25 4.64v-9.27z" stroke="#3a414a" stroke-width="2" fill="#3a414a"/><path d="M1232.12 893.13a7.8 7.8 0 0 1 7.55-5.8h116a4.6 4.6 0 0 1 4.45 5.8l-28.9 108.4a7.8 7.8 0 0 1-7.55 5.8h-116a4.6 4.6 0 0 1-4.46-5.8z" stroke="#3a414a" fill="#fff"/><use xlink:href="#k" transform="matrix(1,0,0,1,1206.6666666666665,892.3333333333334) translate(27.332160493827157 45.27777777777778)"/><use xlink:href="#l" transform="matrix(1,0,0,1,1206.6666666666665,892.3333333333334) translate(48.07907407407408 71.94444444444446)"/><path d="M1445.02 707.33h5.58m5.58 0h11.17m5.58 0h5.6l.93.08.9.23.88.36.8.48.72.6.6.73.5.8.36.88.22.9.08.95v5m0 5.02v10.02m0 5v10.03m0 5v10.03m0 5v10.02m0 5v10.03m0 5v10.03m0 5.02v10.02m0 5v10.03m0 5v10.02m0 5v10.02m0 5v10.03m0 5v10.03m0 5v10.02m0 5v10.03m0 5v10.03m0 5v10.03m0 5v10.02m0 5v10.02m0 5v10.03m0 5v10.03m0 5v10.03m0 5v10.02m0 5V1064m0 5v5.02l-.08.94-.22.9-.36.88-.5.8-.6.72-.72.6-.8.5-.87.37-.9.23-.95.07h-4.96m-4.96 0h-9.92m-4.96 0h-9.92m-4.96 0h-9.92m-4.96 0h-9.92m-4.96 0h-9.92m-4.96 0h-9.92m-4.96 0h-9.92m-4.96 0h-9.92m-4.96 0h-9.92m-4.96 0h-9.9m-4.97 0h-9.9m-4.98 0h-9.9m-4.97 0h-9.92m-4.96 0h-9.92m-4.96 0h-9.93m-4.96 0h-9.9m-4.97 0h-9.92m-4.95 0h-9.92m-4.96 0h-9.92m-4.96 0h-9.93m-4.96 0h-9.9m-4.97 0h-9.92m-4.95 0h-9.92m-4.96 0h-9.92m-4.96 0h-9.92m-4.96 0h-9.92m-4.96 0h-9.92m-4.96 0h-9.92m-4.96 0h-9.92m-4.96 0h-9.92m-4.96 0h-9.92m-4.96 0h-9.92m-4.96 0h-9.92m-4.96 0h-9.92m-4.96 0h-9.92m-4.96 0h-9.92m-4.96 0h-9.92m-4.96 0h-9.92m-4.96 0h-9.92m-4.96 0h-9.9m-4.98 0h-9.9m-4.97 0h-9.92m-4.96 0h-9.92m-4.96 0h-9.93m-4.96 0H804m-4.97 0h-9.92m-4.95 0h-9.92m-4.96 0h-9.92m-4.96 0h-9.93m-4.96 0h-9.9m-4.97 0h-9.92m-4.95 0h-9.92m-4.96 0h-9.92m-4.96 0h-9.92m-4.97 0h-9.9m-4.96 0h-9.92m-4.96 0h-9.92m-4.96 0h-9.92m-4.96 0h-9.92m-4.96 0h-9.92m-4.96 0h-9.92m-4.96 0H556l-.94-.07-.9-.22-.88-.35-.8-.5-.72-.6-.6-.72-.5-.8-.37-.88-.23-.9-.07-.95v-5.03m0-5.03v-10.05m0-5.04v-10.05m0-5.02v-10.06m0-5.03v-10.06m0-5.03v-10.04m0-5.03v-10.06m0-5.03V963.4m0-5.04v-5.03l.07-.94.22-.92.35-.87.5-.8.6-.7.72-.62.8-.5.88-.35.9-.22.95-.07h5.02m5.02 0h10.03m5.02 0h10.03m5 0h10.05m5.02 0h10.03m5.02 0h10.04m5 0h10.04m5.02 0h10.04m5 0h10.05m5.02 0h10.03m5.02 0h10.04m5.02 0h10.03m5.03 0h5.02" stroke="#3a414a" fill="none"/><path d="M1445.03 707.83h-.65l.27-1h.38zM737.02 947.83h-.38v-1h.64z" stroke="#3a414a" stroke-width=".05" fill="#3a414a"/><path d="M420 787.33v-314a6 6 0 0 1 6-6h35.67v320z" stroke="#3a414a" fill="#fff"/><path d="M461.67 1107.33H426a6 6 0 0 1-6-6v-314h41.67z" stroke="#3a414a" fill="#fff"/><path d="M461.67 467.33h1154a6 6 0 0 1 6 6v314h-1160zM1621.67 787.33v314a6 6 0 0 1-6 6h-1154v-320z" stroke="#3a414a" fill="none"/><g><use xlink:href="#m" transform="matrix(-1.8369701987210297e-16,-1,1,-1.8369701987210297e-16,419.99999999999994,787.3333333333335) translate(133.98765432098764 25.444444444444443)"/></g><g><use xlink:href="#n" transform="matrix(-1.8369701987210297e-16,-1,1,-1.8369701987210297e-16,419.99999999999994,1107.3333333333335) translate(122.25925925925927 25.444444444444443)"/></g><defs><path fill="#3a414a" d="M30-248c118-7 216 8 213 122C240-48 200 0 122 0H30v-248zM63-27c89 8 146-16 146-99s-60-101-146-95v194" id="o"/><path fill="#3a414a" d="M100-194c63 0 86 42 84 106H49c0 40 14 67 53 68 26 1 43-12 49-29l28 8c-11 28-37 45-77 45C44 4 14-33 15-96c1-61 26-98 85-98zm52 81c6-60-76-77-97-28-3 7-6 17-6 28h103" id="p"/><path fill="#3a414a" d="M96-169c-40 0-48 33-48 73s9 75 48 75c24 0 41-14 43-38l32 2c-6 37-31 61-74 61-59 0-76-41-82-99-10-93 101-131 147-64 4 7 5 14 7 22l-32 3c-4-21-16-35-41-35" id="q"/><path fill="#3a414a" d="M100-194c62-1 85 37 85 99 1 63-27 99-86 99S16-35 15-95c0-66 28-99 85-99zM99-20c44 1 53-31 53-75 0-43-8-75-51-75s-53 32-53 75 10 74 51 75" id="r"/><path fill="#3a414a" d="M85-194c31 0 48 13 60 33l-1-100h32l1 261h-30c-2-10 0-23-3-31C134-8 116 4 85 4 32 4 16-35 15-94c0-66 23-100 70-100zm9 24c-40 0-46 34-46 75 0 40 6 74 45 74 42 0 51-32 51-76 0-42-9-74-50-73" id="s"/><path fill="#3a414a" d="M114-163C36-179 61-72 57 0H25l-1-190h30c1 12-1 29 2 39 6-27 23-49 58-41v29" id="t"/><g id="a"><use transform="matrix(0.06172839506172839,0,0,0.06172839506172839,0,0)" xlink:href="#o"/><use transform="matrix(0.06172839506172839,0,0,0.06172839506172839,15.987654320987653,0)" xlink:href="#p"/><use transform="matrix(0.06172839506172839,0,0,0.06172839506172839,28.333333333333332,0)" xlink:href="#q"/><use transform="matrix(0.06172839506172839,0,0,0.06172839506172839,39.44444444444444,0)" xlink:href="#r"/><use transform="matrix(0.06172839506172839,0,0,0.06172839506172839,51.79012345679012,0)" xlink:href="#s"/><use transform="matrix(0.06172839506172839,0,0,0.06172839506172839,64.1358024691358,0)" xlink:href="#p"/><use transform="matrix(0.06172839506172839,0,0,0.06172839506172839,76.48148148148148,0)" xlink:href="#t"/></g><path fill="#3a414a" d="M185-189c-5-48-123-54-124 2 14 75 158 14 163 119 3 78-121 87-175 55-17-10-28-26-33-46l33-7c5 56 141 63 141-1 0-78-155-14-162-118-5-82 145-84 179-34 5 7 8 16 11 25" id="u"/><path fill="#3a414a" d="M117-194c89-4 53 116 60 194h-32v-121c0-31-8-49-39-48C34-167 62-67 57 0H25l-1-190h30c1 10-1 24 2 32 11-22 29-35 61-36" id="v"/><path fill="#3a414a" d="M135-143c-3-34-86-38-87 0 15 53 115 12 119 90S17 21 10-45l28-5c4 36 97 45 98 0-10-56-113-15-118-90-4-57 82-63 122-42 12 7 21 19 24 35" id="w"/><g id="b"><use transform="matrix(0.06172839506172839,0,0,0.06172839506172839,0,0)" xlink:href="#u"/><use transform="matrix(0.06172839506172839,0,0,0.06172839506172839,14.814814814814813,0)" xlink:href="#p"/><use transform="matrix(0.06172839506172839,0,0,0.06172839506172839,27.160493827160494,0)" xlink:href="#v"/><use transform="matrix(0.06172839506172839,0,0,0.06172839506172839,39.50617283950617,0)" xlink:href="#w"/><use transform="matrix(0.06172839506172839,0,0,0.06172839506172839,50.61728395061728,0)" xlink:href="#r"/><use transform="matrix(0.06172839506172839,0,0,0.06172839506172839,62.962962962962955,0)" xlink:href="#t"/></g><path fill="#3a414a" d="M141-36C126-15 110 5 73 4 37 3 15-17 15-53c-1-64 63-63 125-63 3-35-9-54-41-54-24 1-41 7-42 31l-33-3c5-37 33-52 76-52 45 0 72 20 72 64v82c-1 20 7 32 28 27v20c-31 9-61-2-59-35zM48-53c0 20 12 33 32 33 41-3 63-29 60-74-43 2-92-5-92 41" id="x"/><path fill="#3a414a" d="M59-47c-2 24 18 29 38 22v24C64 9 27 4 27-40v-127H5v-23h24l9-43h21v43h35v23H59v120" id="y"/><g id="c"><use transform="matrix(0.06172839506172839,0,0,0.06172839506172839,0,0)" xlink:href="#o"/><use transform="matrix(0.06172839506172839,0,0,0.06172839506172839,15.987654320987653,0)" xlink:href="#x"/><use transform="matrix(0.06172839506172839,0,0,0.06172839506172839,28.333333333333332,0)" xlink:href="#y"/><use transform="matrix(0.06172839506172839,0,0,0.06172839506172839,34.50617283950617,0)" xlink:href="#x"/></g><path fill="#3a414a" d="M118-107v75H92v-75H18v-26h74v-75h26v75h74v26h-74" id="z"/><use transform="matrix(0.06172839506172839,0,0,0.06172839506172839,0,0)" xlink:href="#z" id="d"/><path fill="#3a414a" d="M197 0v-115H63V0H30v-248h33v105h134v-105h34V0h-34" id="A"/><g id="e"><use transform="matrix(0.06172839506172839,0,0,0.06172839506172839,0,0)" xlink:href="#A"/><use transform="matrix(0.06172839506172839,0,0,0.06172839506172839,15.987654320987653,0)" xlink:href="#p"/><use transform="matrix(0.06172839506172839,0,0,0.06172839506172839,28.333333333333332,0)" xlink:href="#x"/><use transform="matrix(0.06172839506172839,0,0,0.06172839506172839,40.67901234567901,0)" xlink:href="#s"/><use transform="matrix(0.06172839506172839,0,0,0.06172839506172839,53.02469135802469,0)" xlink:href="#p"/><use transform="matrix(0.06172839506172839,0,0,0.06172839506172839,65.37037037037037,0)" xlink:href="#t"/><use transform="matrix(0.06172839506172839,0,0,0.06172839506172839,72.71604938271605,0)" xlink:href="#w"/></g><g id="f"><use transform="matrix(0.06172839506172839,0,0,0.06172839506172839,0,0)" xlink:href="#A"/><use transform="matrix(0.06172839506172839,0,0,0.06172839506172839,15.987654320987653,0)" xlink:href="#x"/><use transform="matrix(0.06172839506172839,0,0,0.06172839506172839,28.333333333333332,0)" xlink:href="#w"/></g><g id="g"><use transform="matrix(0.06172839506172839,0,0,0.06172839506172839,0,0)" xlink:href="#o"/><use transform="matrix(0.06172839506172839,0,0,0.06172839506172839,15.987654320987653,0)" xlink:href="#x"/><use transform="matrix(0.06172839506172839,0,0,0.06172839506172839,28.333333333333332,0)" xlink:href="#y"/><use transform="matrix(0.06172839506172839,0,0,0.06172839506172839,34.50617283950617,0)" xlink:href="#x"/></g><path fill="#3a414a" d="M205 0l-28-72H64L36 0H1l101-248h38L239 0h-34zm-38-99l-47-123c-12 45-31 82-46 123h93" id="B"/><path fill="#3a414a" d="M24 0v-261h32V0H24" id="C"/><g id="h"><use transform="matrix(0.06172839506172839,0,0,0.06172839506172839,0,0)" xlink:href="#B"/><use transform="matrix(0.06172839506172839,0,0,0.06172839506172839,14.814814814814813,0)" xlink:href="#C"/><use transform="matrix(0.06172839506172839,0,0,0.06172839506172839,19.691358024691354,0)" xlink:href="#C"/><use transform="matrix(0.06172839506172839,0,0,0.06172839506172839,24.5679012345679,0)" xlink:href="#r"/><use transform="matrix(0.06172839506172839,0,0,0.06172839506172839,36.913580246913575,0)" xlink:href="#q"/><use transform="matrix(0.06172839506172839,0,0,0.06172839506172839,48.02469135802468,0)" xlink:href="#x"/><use transform="matrix(0.06172839506172839,0,0,0.06172839506172839,60.37037037037036,0)" xlink:href="#y"/><use transform="matrix(0.06172839506172839,0,0,0.06172839506172839,66.5432098765432,0)" xlink:href="#r"/><use transform="matrix(0.06172839506172839,0,0,0.06172839506172839,78.88888888888889,0)" xlink:href="#t"/></g><path fill="#3a414a" d="M233-177c-1 41-23 64-60 70L243 0h-38l-65-103H63V0H30v-248c88 3 205-21 203 71zM63-129c60-2 137 13 137-47 0-61-80-42-137-45v92" id="D"/><path fill="#3a414a" d="M145-31C134-9 116 4 85 4 32 4 16-35 15-94c0-59 17-99 70-100 32-1 48 14 60 33 0-11-1-24 2-32h30l-1 268h-32zM93-21c41 0 51-33 51-76s-8-73-50-73c-40 0-46 35-46 75s5 74 45 74" id="E"/><path fill="#3a414a" d="M84 4C-5 8 30-112 23-190h32v120c0 31 7 50 39 49 72-2 45-101 50-169h31l1 190h-30c-1-10 1-25-2-33-11 22-28 36-60 37" id="F"/><g id="i"><use transform="matrix(0.06172839506172839,0,0,0.06172839506172839,0,0)" xlink:href="#D"/><use transform="matrix(0.06172839506172839,0,0,0.06172839506172839,15.987654320987653,0)" xlink:href="#p"/><use transform="matrix(0.06172839506172839,0,0,0.06172839506172839,28.333333333333332,0)" xlink:href="#E"/><use transform="matrix(0.06172839506172839,0,0,0.06172839506172839,40.67901234567901,0)" xlink:href="#F"/><use transform="matrix(0.06172839506172839,0,0,0.06172839506172839,53.02469135802469,0)" xlink:href="#p"/><use transform="matrix(0.06172839506172839,0,0,0.06172839506172839,65.37037037037037,0)" xlink:href="#w"/><use transform="matrix(0.06172839506172839,0,0,0.06172839506172839,76.48148148148148,0)" xlink:href="#y"/></g><path fill="#3a414a" d="M115-194c53 0 69 39 70 98 0 66-23 100-70 100C84 3 66-7 56-30L54 0H23l1-261h32v101c10-23 28-34 59-34zm-8 174c40 0 45-34 45-75 0-40-5-75-45-74-42 0-51 32-51 76 0 43 10 73 51 73" id="G"/><path fill="#3a414a" d="M101-234c-31-9-42 10-38 44h38v23H63V0H32v-167H5v-23h27c-7-52 17-82 69-68v24" id="H"/><g id="j"><use transform="matrix(0.06172839506172839,0,0,0.06172839506172839,0,0)" xlink:href="#G"/><use transform="matrix(0.06172839506172839,0,0,0.06172839506172839,12.345679012345679,0)" xlink:href="#F"/><use transform="matrix(0.06172839506172839,0,0,0.06172839506172839,24.691358024691358,0)" xlink:href="#H"/><use transform="matrix(0.06172839506172839,0,0,0.06172839506172839,30.432098765432098,0)" xlink:href="#H"/><use transform="matrix(0.06172839506172839,0,0,0.06172839506172839,36.60493827160494,0)" xlink:href="#p"/><use transform="matrix(0.06172839506172839,0,0,0.06172839506172839,48.95061728395061,0)" xlink:href="#t"/></g><g id="k"><use transform="matrix(0.06172839506172839,0,0,0.06172839506172839,0,0)" xlink:href="#u"/><use transform="matrix(0.06172839506172839,0,0,0.06172839506172839,14.814814814814813,0)" xlink:href="#y"/><use transform="matrix(0.06172839506172839,0,0,0.06172839506172839,20.98765432098765,0)" xlink:href="#t"/><use transform="matrix(0.06172839506172839,0,0,0.06172839506172839,28.33333333333333,0)" xlink:href="#F"/><use transform="matrix(0.06172839506172839,0,0,0.06172839506172839,40.679012345679006,0)" xlink:href="#q"/><use transform="matrix(0.06172839506172839,0,0,0.06172839506172839,51.79012345679011,0)" xlink:href="#y"/><use transform="matrix(0.06172839506172839,0,0,0.06172839506172839,57.962962962962955,0)" xlink:href="#F"/><use transform="matrix(0.06172839506172839,0,0,0.06172839506172839,70.30864197530863,0)" xlink:href="#t"/><use transform="matrix(0.06172839506172839,0,0,0.06172839506172839,77.65432098765432,0)" xlink:href="#p"/><use transform="matrix(0.06172839506172839,0,0,0.06172839506172839,90,0)" xlink:href="#s"/></g><g id="l"><use transform="matrix(0.06172839506172839,0,0,0.06172839506172839,0,0)" xlink:href="#o"/><use transform="matrix(0.06172839506172839,0,0,0.06172839506172839,15.987654320987653,0)" xlink:href="#x"/><use transform="matrix(0.06172839506172839,0,0,0.06172839506172839,28.333333333333332,0)" xlink:href="#y"/><use transform="matrix(0.06172839506172839,0,0,0.06172839506172839,34.50617283950617,0)" xlink:href="#x"/></g><g id="m"><use transform="matrix(0.06172839506172839,0,0,0.06172839506172839,0,0)" xlink:href="#D"/><use transform="matrix(0.06172839506172839,0,0,0.06172839506172839,15.987654320987653,0)" xlink:href="#p"/><use transform="matrix(0.06172839506172839,0,0,0.06172839506172839,28.333333333333332,0)" xlink:href="#x"/><use transform="matrix(0.06172839506172839,0,0,0.06172839506172839,40.67901234567901,0)" xlink:href="#s"/></g><g id="n"><use transform="matrix(0.06172839506172839,0,0,0.06172839506172839,0,0)" xlink:href="#o"/><use transform="matrix(0.06172839506172839,0,0,0.06172839506172839,15.987654320987653,0)" xlink:href="#p"/><use transform="matrix(0.06172839506172839,0,0,0.06172839506172839,28.333333333333332,0)" xlink:href="#q"/><use transform="matrix(0.06172839506172839,0,0,0.06172839506172839,39.44444444444444,0)" xlink:href="#r"/><use transform="matrix(0.06172839506172839,0,0,0.06172839506172839,51.79012345679012,0)" xlink:href="#s"/><use transform="matrix(0.06172839506172839,0,0,0.06172839506172839,64.1358024691358,0)" xlink:href="#p"/></g></defs></g></svg>