<svg width="83" height="96" viewBox="0 0 83 96" fill="none" xmlns="http://www.w3.org/2000/svg">
<g clip-path="url(#clip0_1_2)">
<path d="M40.9567 78.085C35.2281 80.3327 27.9297 34.6481 33.4524 19.4778C35.8953 12.7671 37.9938 5.76196 46.6244 0.0817128C56.677 -1.00794 52.1865 8.81463 48.7866 28.6929C45.3867 48.5712 40.9567 78.085 40.9567 78.085Z" fill="black"/>
<path d="M42.2607 77.5705C38.8273 82.6775 37.668 68.6416 31.6806 53.6486C25.6933 38.6556 13.4455 49.928 14.602 39.7136C18.0154 35.5125 34.6527 36.1926 43.1624 54.4762C51.6722 72.7598 42.2607 77.5705 42.2607 77.5705Z" fill="black"/>
<path d="M40.0973 79.9281C44.4373 84.2909 45.4573 69.5277 52.6366 55.0676C57.8456 44.576 68.6614 45.3813 64.1793 36.5044C59.9249 33.3516 46.976 41.0337 42.0897 60.5998C37.2035 80.1658 40.0973 79.9281 40.0973 79.9281Z" fill="black"/>
<path d="M41.0685 71.9448C35.8226 75.1621 46.2014 54.1686 41.6989 39.135C39.1635 30.6693 34.848 23.7855 37.968 18.7193C43.0234 16.5961 49.7838 27.5947 49.9218 47.7612C50.0599 67.9277 41.0685 71.9448 41.0685 71.9448Z" fill="black"/>
<path d="M41.1329 76.3142C36.6661 80.5471 33.1266 66.1461 30.5617 50.2068C27.9969 34.2675 15.0953 29.3501 20.3027 22.8947C29.0637 14.5405 35.4047 37.2338 39.7116 56.9355C44.0185 76.6372 41.1329 76.3142 41.1329 76.3142Z" fill="black"/>
<path d="M39.6845 96C38.5393 72.6539 38.1581 66.638 51.6408 56.9019C65.1234 47.1659 75.6906 56.1619 82.5196 58.4871C76.2937 62.2799 70.5265 60.0671 63.3746 63.2813C53.3181 67.8008 54.0425 68.332 51.3298 73.7449C42.9703 90.4259 48.0947 94.55 39.6845 96Z" fill="black"/>
<path d="M39.5032 95.7304C32.5058 94.7671 38.3215 81.6254 25.9021 66.2143C15.7999 53.6787 8.78268 71.3508 0.25981 63.9532C7.73736 45.1606 25.2549 37.2023 33.6395 60.16C35.8609 66.2422 37.8954 68.7929 39.0833 72.9083C42.379 84.3266 45.7383 96.9838 39.5032 95.7304Z" fill="black"/>
</g>
<defs>
<clipPath id="clip0_1_2">
<rect width="82.5196" height="96" fill="white"/>
</clipPath>
</defs>
</svg>
